<?xml version="1.0" encoding="UTF-8" standalone="no"?>
<svg
   xmlns:dc="http://purl.org/dc/elements/1.1/"
   xmlns:cc="http://creativecommons.org/ns#"
   xmlns:rdf="http://www.w3.org/1999/02/22-rdf-syntax-ns#"
   xmlns:svg="http://www.w3.org/2000/svg"
   xmlns="http://www.w3.org/2000/svg"
   viewBox="0 0 946.14801 949.90533"
   height="949.90533"
   width="946.14801"
   xml:space="preserve"
   id="svg2"
   version="1.1"><metadata
     id="metadata8"><rdf:RDF><cc:Work
         rdf:about=""><dc:format>image/svg+xml</dc:format><dc:type
           rdf:resource="http://purl.org/dc/dcmitype/StillImage" /></cc:Work></rdf:RDF></metadata><defs
     id="defs6"><clipPath
       id="clipPath20"
       clipPathUnits="userSpaceOnUse"><path
         id="path18"
         d="M 0,0 H 709.611 V 712.429 H 0 Z" /></clipPath><clipPath
       id="clipPath32"
       clipPathUnits="userSpaceOnUse"><path
         id="path30"
         d="M 0,712.429 H 709.611 V 0 H 0 Z" /></clipPath><clipPath
       id="clipPath38"
       clipPathUnits="userSpaceOnUse"><path
         id="path36"
         d="M 0,0 H 709.611 V 712.429 H 0 Z" /></clipPath></defs><g
     transform="matrix(1.3333333,0,0,-1.3333333,0,949.90533)"
     id="g10"><g
       id="g12" /><g
       id="g14"><g
         clip-path="url(#clipPath20)"
         id="g16"><path
           id="path22"
           style="fill:#424242;fill-opacity:1;fill-rule:nonzero;stroke:none"
           d="m 0,357.429 h 709.61 v 355 H 0 Z" /><path
           id="path24"
           style="fill:#f5de17;fill-opacity:1;fill-rule:nonzero;stroke:none"
           d="m 175.068,576.857 h 102.27 v -102.27 h -102.27 z" /></g></g><g
       id="g26"><g
         clip-path="url(#clipPath32)"
         id="g28"><g
           clip-path="url(#clipPath38)"
           id="g34"><path
             id="path40"
             style="fill:#ffffff;fill-opacity:1;fill-rule:nonzero;stroke:none"
             d="m 314.9614,494.4511 c 0,-2.02 -0.229,-3.921 -0.683,-5.702 -0.456,-1.782 -1.248,-3.337 -2.376,-4.663 -1.128,-1.327 -2.653,-2.376 -4.574,-3.149 -1.921,-0.771 -4.346,-1.158 -7.276,-1.158 -2.694,0 -5.01,0.327 -6.95,0.981 -1.94,0.653 -3.544,1.415 -4.811,2.287 l 3.089,7.186 c 1.148,-0.674 2.376,-1.267 3.683,-1.781 1.306,-0.516 2.732,-0.772 4.276,-0.772 2.257,0 3.88,0.553 4.871,1.663 0.989,1.108 1.485,2.969 1.485,5.583 v 26.848 h 9.266 z" /><path
             id="path42"
             style="fill:#ffffff;fill-opacity:1;fill-rule:nonzero;stroke:none"
             d="m 334.4434,487.6797 c 1.307,0 2.385,0.108 3.237,0.326 0.851,0.218 1.534,0.515 2.05,0.892 0.514,0.376 0.87,0.821 1.069,1.336 0.198,0.514 0.297,1.089 0.297,1.722 0,1.346 -0.634,2.465 -1.901,3.357 -1.268,0.89 -3.445,1.85 -6.534,2.881 -1.346,0.474 -2.693,1.018 -4.039,1.632 -1.346,0.615 -2.554,1.386 -3.623,2.318 -1.069,0.93 -1.941,2.057 -2.614,3.385 -0.673,1.326 -1.009,2.94 -1.009,4.841 0,1.901 0.356,3.613 1.068,5.138 0.713,1.524 1.723,2.821 3.03,3.891 1.307,1.069 2.89,1.89 4.752,2.465 1.861,0.573 3.959,0.861 6.296,0.861 2.772,0 5.168,-0.297 7.187,-0.891 2.02,-0.594 3.683,-1.248 4.99,-1.961 l -2.673,-7.305 c -1.149,0.593 -2.426,1.118 -3.832,1.574 -1.405,0.455 -3.098,0.683 -5.078,0.683 -2.218,0 -3.812,-0.307 -4.781,-0.92 -0.971,-0.616 -1.456,-1.555 -1.456,-2.823 0,-0.752 0.178,-1.385 0.535,-1.9 0.356,-0.515 0.861,-0.98 1.514,-1.396 0.654,-0.416 1.406,-0.793 2.258,-1.128 0.851,-0.337 1.791,-0.683 2.821,-1.04 2.139,-0.792 3.999,-1.574 5.583,-2.346 1.584,-0.773 2.901,-1.673 3.951,-2.702 1.048,-1.031 1.831,-2.239 2.346,-3.624 0.514,-1.386 0.772,-3.069 0.772,-5.049 0,-3.841 -1.347,-6.821 -4.039,-8.94 -2.694,-2.118 -6.752,-3.177 -12.177,-3.177 -1.822,0 -3.465,0.109 -4.93,0.327 -1.466,0.218 -2.762,0.485 -3.89,0.802 -1.129,0.316 -2.1,0.653 -2.911,1.009 -0.812,0.357 -1.495,0.693 -2.049,1.01 l 2.613,7.365 c 1.227,-0.674 2.742,-1.277 4.544,-1.811 1.802,-0.534 4.01,-0.802 6.623,-0.802" /><path
             id="path44"
             style="fill:#ffffff;fill-opacity:1;fill-rule:nonzero;stroke:none"
             d="m 390.4155,520.9706 v -3.505 h -13.187 v -37.658 h -4.039 v 37.658 h -13.186 v 3.505 z" /><path
             id="path46"
             style="fill:#ffffff;fill-opacity:1;fill-rule:nonzero;stroke:none"
             d="m 414.0859,516.3369 c -1.491,-3.419 -2.941,-6.889 -4.353,-10.408 -1.411,-3.521 -2.872,-7.318 -4.383,-11.391 h 17.569 c -1.52,4.079 -3,7.882 -4.439,11.406 -1.441,3.526 -2.905,6.99 -4.394,10.393 m 14.165,-36.529 c -0.786,2.021 -1.508,3.966 -2.167,5.832 -0.66,1.866 -1.29,3.684 -1.892,5.453 h -20.109 c -0.687,-1.778 -1.36,-3.601 -2.017,-5.468 -0.657,-1.867 -1.353,-3.808 -2.087,-5.817 h -4.217 c 1.563,4.285 3.039,8.277 4.429,11.978 1.391,3.701 2.755,7.202 4.091,10.505 1.337,3.302 2.665,6.475 3.983,9.521 1.318,3.044 2.703,6.097 4.156,9.159 h 3.561 c 1.452,-3.048 2.83,-6.098 4.133,-9.148 1.303,-3.05 2.626,-6.226 3.967,-9.527 1.341,-3.3 2.7,-6.804 4.078,-10.51 1.377,-3.706 2.894,-7.698 4.548,-11.978 z" /><path
             id="path48"
             style="fill:#ffffff;fill-opacity:1;fill-rule:nonzero;stroke:none"
             d="m 473.3945,479.8076 c -0.764,1.377 -1.723,3.002 -2.876,4.873 -1.154,1.871 -2.436,3.858 -3.845,5.96 -1.411,2.102 -2.883,4.275 -4.416,6.521 -1.533,2.244 -3.061,4.426 -4.581,6.548 -1.52,2.121 -3.008,4.11 -4.463,5.964 -1.456,1.855 -2.747,3.457 -3.875,4.807 v -34.673 h -3.98 v 41.163 h 3.208 c 2.021,-2.256 4.187,-4.861 6.496,-7.816 2.31,-2.956 4.573,-5.968 6.792,-9.035 2.219,-3.069 4.291,-6.067 6.214,-8.995 1.923,-2.929 3.5,-5.48 4.732,-7.655 v 33.501 h 3.98 v -41.163 z" /><path
             id="path50"
             style="fill:#ffffff;fill-opacity:1;fill-rule:nonzero;stroke:none"
             d="m 498.2827,499.5869 v -16.275 c 0.594,-0.079 1.485,-0.169 2.673,-0.267 1.188,-0.1 2.395,-0.148 3.623,-0.148 1.821,0 3.594,0.118 5.316,0.357 1.723,0.238 3.238,0.675 4.544,1.311 1.307,0.635 2.356,1.51 3.148,2.623 0.792,1.113 1.188,2.544 1.188,4.293 0,1.588 -0.277,2.91 -0.831,3.963 -0.555,1.052 -1.347,1.887 -2.376,2.503 -1.03,0.617 -2.287,1.043 -3.772,1.282 -1.485,0.239 -3.139,0.358 -4.96,0.358 z m 0,3.445 h 7.84 c 1.465,0 2.851,0.108 4.159,0.326 1.306,0.216 2.444,0.611 3.415,1.182 0.97,0.572 1.732,1.342 2.287,2.308 0.554,0.966 0.831,2.198 0.831,3.698 0,1.341 -0.297,2.475 -0.891,3.401 -0.594,0.927 -1.435,1.686 -2.524,2.278 -1.09,0.591 -2.387,1.015 -3.891,1.272 -1.505,0.256 -3.168,0.385 -4.989,0.385 -1.466,0 -2.703,-0.04 -3.713,-0.119 -1.009,-0.079 -1.851,-0.178 -2.524,-0.297 z m 5.821,-23.581 c -0.674,0 -1.455,0.03 -2.346,0.089 -0.892,0.06 -1.803,0.14 -2.733,0.237 -0.93,0.099 -1.811,0.218 -2.643,0.357 -0.831,0.139 -1.544,0.287 -2.138,0.446 v 39.618 c 0.713,0.199 1.504,0.367 2.376,0.505 0.871,0.139 1.771,0.257 2.703,0.357 0.929,0.098 1.841,0.168 2.731,0.208 0.892,0.039 1.713,0.059 2.466,0.059 2.217,0 4.326,-0.179 6.326,-0.534 1.999,-0.356 3.751,-0.949 5.256,-1.779 1.505,-0.83 2.703,-1.927 3.594,-3.292 0.891,-1.365 1.337,-3.054 1.337,-5.071 0,-2.214 -0.565,-4.102 -1.693,-5.664 -1.129,-1.561 -2.643,-2.638 -4.544,-3.232 1.188,-0.278 2.276,-0.675 3.266,-1.189 0.99,-0.517 1.861,-1.18 2.614,-1.994 0.752,-0.812 1.336,-1.803 1.753,-2.973 0.415,-1.169 0.623,-2.567 0.623,-4.193 0,-3.886 -1.544,-6.85 -4.633,-8.892 -3.089,-2.042 -7.861,-3.063 -14.315,-3.063" /><path
             id="path52"
             style="fill:#ffffff;fill-opacity:1;fill-rule:nonzero;stroke:none"
             d="m 553.2847,478.916 c -2.732,0 -5.059,0.416 -6.979,1.248 -1.921,0.831 -3.475,1.98 -4.663,3.445 -1.188,1.464 -2.049,3.178 -2.584,5.138 -0.534,1.96 -0.802,4.068 -0.802,6.326 v 25.898 h 4.039 v -25.364 c 0,-2.256 0.268,-4.208 0.802,-5.85 0.535,-1.644 1.277,-3 2.228,-4.07 0.95,-1.068 2.098,-1.861 3.445,-2.375 1.346,-0.515 2.851,-0.772 4.514,-0.772 1.664,0 3.168,0.257 4.515,0.772 1.345,0.514 2.494,1.307 3.444,2.375 0.951,1.07 1.693,2.426 2.228,4.07 0.535,1.642 0.802,3.594 0.802,5.85 v 25.364 h 4.039 v -25.898 c 0,-2.258 -0.267,-4.366 -0.802,-6.326 -0.535,-1.96 -1.396,-3.674 -2.584,-5.138 -1.188,-1.465 -2.742,-2.614 -4.663,-3.445 -1.921,-0.832 -4.247,-1.248 -6.979,-1.248" /><path
             id="path54"
             style="fill:#ffffff;fill-opacity:1;fill-rule:nonzero;stroke:none"
             d="m 609,483.3115 v -3.504 h -23.403 v 41.163 h 4.039 v -37.659 z" /><path
             id="path56"
             style="fill:#ffffff;fill-opacity:1;fill-rule:nonzero;stroke:none"
             d="m 238.3452,491.0029 c -3.485,-0.775 -6.969,-1.551 -10.454,-2.327 -0.07,0.204 -0.141,0.408 -0.212,0.613 2.903,1.548 5.806,3.096 8.759,4.67 -4.641,6.883 -9.1,8.44 -16.079,5.277 -6.753,-3.06 -13.274,-6.632 -19.896,-9.979 -0.625,-0.317 -1.253,-0.627 -2.243,-0.517 0.507,0.475 0.96,1.027 1.527,1.412 8.459,5.764 16.844,11.669 26.449,15.46 1.853,0.732 3.822,1.189 5.76,1.681 2.863,0.727 5.162,0.261 7.154,-2.371 1.386,-1.833 3.638,-3.01 5.714,-4.646 3.061,7.441 8.518,12.358 14.197,17.07 0.974,0.808 2.107,1.456 3.235,2.043 2.674,1.392 4.831,0.516 5.872,-2.301 0.991,-2.682 0.003,-4.024 -2.83,-4.006 -1.677,0.011 -3.452,0.146 -5.005,-0.341 -1.489,-0.467 -3.149,-1.378 -4.026,-2.601 -1.835,-2.558 -2.663,-5.571 -2.242,-8.893 3.511,-0.243 6.004,-1.69 7.616,-4.814 0.624,-1.209 2.093,-1.983 3.254,-3.024 -0.425,-0.246 -0.605,-0.406 -0.657,-0.372 -3.287,2.16 -6.042,1.185 -9.153,-0.834 -4.089,-2.653 -8.735,-3.956 -13.75,-2.79 -0.396,0.092 -0.887,-0.058 -1.294,-0.206 -2.194,-0.791 -4.375,-1.616 -6.73,-2.058 0.551,3.14 3.367,2.374 5.034,3.854" /><path
             id="path58"
             style="fill:#f5de17;fill-opacity:1;fill-rule:nonzero;stroke:none"
             d="M 0,357.429 H 355 V 0 H 0 Z" /><path
             id="path60"
             style="fill:#ffffff;fill-opacity:1;fill-rule:nonzero;stroke:none"
             d="m 46.305,208.42 h 61.84 v -61.84 h -61.84 z" /><path
             id="path62"
             style="fill:#ffffff;fill-opacity:1;fill-rule:nonzero;stroke:none"
             d="m 130.8955,158.5908 c 0,-1.222 -0.138,-2.371 -0.413,-3.448 -0.275,-1.078 -0.754,-2.018 -1.437,-2.82 -0.682,-0.802 -1.604,-1.437 -2.765,-1.904 -1.162,-0.467 -2.628,-0.7 -4.4,-0.7 -1.629,0 -3.029,0.197 -4.202,0.593 -1.174,0.395 -2.143,0.855 -2.909,1.383 l 1.867,4.345 c 0.695,-0.407 1.437,-0.766 2.227,-1.077 0.79,-0.311 1.652,-0.467 2.586,-0.467 1.365,0 2.346,0.335 2.945,1.006 0.599,0.67 0.898,1.796 0.898,3.376 v 16.234 h 5.603 z" /><path
             id="path64"
             style="fill:#ffffff;fill-opacity:1;fill-rule:nonzero;stroke:none"
             d="m 142.6763,154.4961 c 0.79,0 1.442,0.065 1.958,0.197 0.514,0.132 0.927,0.311 1.239,0.539 0.31,0.227 0.526,0.496 0.646,0.808 0.119,0.311 0.179,0.658 0.179,1.042 0,0.813 -0.383,1.49 -1.149,2.029 -0.767,0.539 -2.083,1.119 -3.951,1.742 -0.814,0.288 -1.628,0.617 -2.442,0.988 -0.814,0.371 -1.544,0.838 -2.191,1.4 -0.646,0.563 -1.173,1.245 -1.58,2.048 -0.408,0.802 -0.611,1.777 -0.611,2.927 0,1.149 0.215,2.185 0.647,3.107 0.431,0.921 1.041,1.706 1.832,2.353 0.79,0.646 1.747,1.142 2.873,1.49 1.125,0.347 2.394,0.52 3.807,0.52 1.676,0 3.125,-0.178 4.346,-0.538 1.221,-0.359 2.227,-0.755 3.017,-1.185 l -1.616,-4.418 c -0.695,0.359 -1.467,0.677 -2.317,0.952 -0.85,0.274 -1.874,0.413 -3.071,0.413 -1.341,0 -2.304,-0.185 -2.891,-0.557 -0.587,-0.372 -0.88,-0.94 -0.88,-1.706 0,-0.455 0.108,-0.838 0.323,-1.149 0.216,-0.312 0.521,-0.593 0.916,-0.845 0.395,-0.251 0.85,-0.478 1.365,-0.681 0.514,-0.205 1.083,-0.413 1.706,-0.629 1.293,-0.48 2.418,-0.952 3.376,-1.419 0.958,-0.467 1.754,-1.012 2.388,-1.634 0.635,-0.623 1.108,-1.354 1.419,-2.191 0.311,-0.838 0.467,-1.856 0.467,-3.053 0,-2.322 -0.814,-4.125 -2.442,-5.405 -1.629,-1.282 -4.083,-1.922 -7.363,-1.922 -1.102,0 -2.096,0.066 -2.981,0.197 -0.886,0.132 -1.67,0.294 -2.353,0.485 -0.682,0.192 -1.269,0.395 -1.76,0.611 -0.491,0.215 -0.904,0.419 -1.239,0.61 l 1.581,4.454 c 0.741,-0.407 1.657,-0.772 2.747,-1.096 1.089,-0.323 2.424,-0.484 4.005,-0.484" /><path
             id="path66"
             style="fill:#ffffff;fill-opacity:1;fill-rule:nonzero;stroke:none"
             d="m 176.5215,174.6259 v -2.119 h -7.974 v -22.772 h -2.442 v 22.772 h -7.974 v 2.119 z" /><path
             id="path68"
             style="fill:#ffffff;fill-opacity:1;fill-rule:nonzero;stroke:none"
             d="m 190.8345,171.8242 c -0.901,-2.067 -1.778,-4.165 -2.632,-6.293 -0.854,-2.129 -1.737,-4.425 -2.651,-6.888 h 10.624 c -0.919,2.466 -1.814,4.766 -2.684,6.897 -0.871,2.132 -1.757,4.226 -2.657,6.284 m 8.565,-22.089 c -0.475,1.223 -0.911,2.399 -1.31,3.527 -0.4,1.128 -0.78,2.228 -1.144,3.297 h -12.16 c -0.415,-1.075 -0.822,-2.176 -1.219,-3.306 -0.398,-1.129 -0.818,-2.302 -1.262,-3.518 h -2.551 c 0.946,2.592 1.838,5.006 2.679,7.244 0.841,2.238 1.666,4.355 2.474,6.352 0.808,1.997 1.611,3.915 2.408,5.757 0.797,1.84 1.634,3.686 2.513,5.538 h 2.153 c 0.878,-1.843 1.711,-3.687 2.5,-5.531 0.788,-1.845 1.587,-3.765 2.398,-5.761 0.811,-1.995 1.633,-4.114 2.466,-6.355 0.833,-2.241 1.75,-4.655 2.75,-7.244 z" /><path
             id="path70"
             style="fill:#ffffff;fill-opacity:1;fill-rule:nonzero;stroke:none"
             d="m 226.6973,149.7353 c -0.462,0.833 -1.042,1.815 -1.739,2.947 -0.698,1.132 -1.473,2.333 -2.325,3.605 -0.853,1.27 -1.743,2.585 -2.67,3.942 -0.928,1.357 -1.851,2.677 -2.77,3.96 -0.92,1.282 -1.819,2.484 -2.699,3.606 -0.88,1.122 -1.661,2.09 -2.343,2.907 v -20.967 h -2.407 v 24.891 h 1.94 c 1.222,-1.364 2.532,-2.94 3.928,-4.727 1.397,-1.787 2.765,-3.608 4.107,-5.463 1.342,-1.855 2.594,-3.668 3.757,-5.438 1.163,-1.772 2.117,-3.315 2.862,-4.629 v 20.257 h 2.406 v -24.891 z" /><path
             id="path72"
             style="fill:#ffffff;fill-opacity:1;fill-rule:nonzero;stroke:none"
             d="m 241.7466,161.6963 v -9.842 c 0.359,-0.048 0.898,-0.101 1.616,-0.161 0.718,-0.06 1.448,-0.09 2.191,-0.09 1.101,0 2.173,0.072 3.215,0.216 1.041,0.145 1.957,0.409 2.748,0.793 0.79,0.385 1.424,0.913 1.903,1.586 0.479,0.673 0.718,1.538 0.718,2.596 0,0.961 -0.167,1.759 -0.502,2.397 -0.336,0.636 -0.815,1.141 -1.437,1.513 -0.623,0.373 -1.383,0.631 -2.281,0.775 -0.898,0.145 -1.898,0.217 -2.999,0.217 z m 0,2.083 h 4.741 c 0.885,0 1.724,0.065 2.514,0.196 0.79,0.132 1.478,0.37 2.065,0.716 0.587,0.346 1.048,0.811 1.383,1.395 0.335,0.585 0.503,1.33 0.503,2.237 0,0.81 -0.18,1.496 -0.539,2.057 -0.359,0.559 -0.868,1.018 -1.526,1.377 -0.659,0.357 -1.443,0.614 -2.353,0.768 -0.91,0.155 -1.915,0.234 -3.017,0.234 -0.886,0 -1.634,-0.025 -2.245,-0.073 -0.61,-0.048 -1.119,-0.107 -1.526,-0.179 z m 3.52,-14.259 c -0.408,0 -0.88,0.018 -1.419,0.054 -0.539,0.036 -1.09,0.084 -1.652,0.143 -0.563,0.06 -1.095,0.131 -1.598,0.216 -0.503,0.083 -0.934,0.173 -1.293,0.27 v 23.956 c 0.431,0.12 0.909,0.222 1.436,0.306 0.527,0.083 1.071,0.155 1.634,0.214 0.563,0.06 1.114,0.102 1.653,0.126 0.538,0.024 1.035,0.037 1.49,0.037 1.341,0 2.616,-0.108 3.825,-0.323 1.209,-0.216 2.269,-0.574 3.179,-1.076 0.91,-0.502 1.634,-1.166 2.173,-1.991 0.539,-0.824 0.808,-1.847 0.808,-3.066 0,-1.339 -0.341,-2.481 -1.024,-3.424 -0.682,-0.945 -1.598,-1.596 -2.747,-1.955 0.718,-0.168 1.376,-0.408 1.975,-0.719 0.599,-0.313 1.125,-0.714 1.581,-1.205 0.454,-0.492 0.808,-1.091 1.059,-1.798 0.252,-0.708 0.378,-1.553 0.378,-2.536 0,-2.35 -0.935,-4.143 -2.802,-5.377 -1.868,-1.235 -4.754,-1.852 -8.656,-1.852" /><path
             id="path74"
             style="fill:#ffffff;fill-opacity:1;fill-rule:nonzero;stroke:none"
             d="m 275.0054,149.1972 c -1.652,0 -3.059,0.251 -4.22,0.754 -1.162,0.503 -2.101,1.197 -2.82,2.083 -0.718,0.886 -1.239,1.922 -1.562,3.107 -0.323,1.185 -0.485,2.46 -0.485,3.826 v 15.659 h 2.442 v -15.336 c 0,-1.365 0.162,-2.545 0.485,-3.538 0.324,-0.994 0.772,-1.814 1.347,-2.46 0.575,-0.647 1.269,-1.126 2.083,-1.438 0.814,-0.311 1.724,-0.467 2.73,-0.467 1.006,0 1.916,0.156 2.729,0.467 0.814,0.312 1.509,0.791 2.084,1.438 0.575,0.646 1.023,1.466 1.347,2.46 0.323,0.993 0.485,2.173 0.485,3.538 v 15.336 h 2.442 v -15.659 c 0,-1.366 -0.162,-2.641 -0.485,-3.826 -0.323,-1.185 -0.844,-2.221 -1.562,-3.107 -0.719,-0.886 -1.659,-1.58 -2.82,-2.083 -1.161,-0.503 -2.568,-0.754 -4.22,-0.754" /><path
             id="path76"
             style="fill:#ffffff;fill-opacity:1;fill-rule:nonzero;stroke:none"
             d="m 308.6953,151.8545 v -2.119 h -14.151 v 24.89 h 2.442 v -22.771 z" /><path
             id="path78"
             style="fill:#f5de17;fill-opacity:1;fill-rule:nonzero;stroke:none"
             d="m 84.5674,156.5058 c -2.107,-0.47 -4.214,-0.938 -6.321,-1.407 -0.043,0.123 -0.086,0.247 -0.128,0.37 1.755,0.936 3.511,1.872 5.296,2.824 -2.806,4.162 -5.503,5.104 -9.723,3.192 -4.083,-1.851 -8.026,-4.011 -12.031,-6.036 -0.378,-0.19 -0.757,-0.379 -1.356,-0.312 0.306,0.287 0.581,0.621 0.924,0.854 5.115,3.486 10.185,7.056 15.992,9.349 1.121,0.442 2.312,0.718 3.484,1.016 1.731,0.439 3.121,0.158 4.325,-1.434 0.839,-1.108 2.201,-1.82 3.456,-2.809 1.851,4.498 5.15,7.472 8.584,10.322 0.59,0.489 1.274,0.88 1.956,1.235 1.617,0.842 2.922,0.313 3.551,-1.392 0.599,-1.621 0.002,-2.433 -1.711,-2.421 -1.014,0.005 -2.087,0.087 -3.026,-0.206 -0.901,-0.283 -1.905,-0.833 -2.435,-1.574 -1.109,-1.547 -1.61,-3.368 -1.356,-5.377 2.123,-0.147 3.631,-1.022 4.606,-2.911 0.377,-0.731 1.265,-1.199 1.967,-1.829 -0.257,-0.148 -0.366,-0.245 -0.397,-0.225 -1.988,1.307 -3.653,0.717 -5.534,-0.503 -2.473,-1.605 -5.283,-2.393 -8.315,-1.688 -0.24,0.056 -0.536,-0.035 -0.783,-0.124 -1.326,-0.478 -2.645,-0.977 -4.069,-1.245 0.333,1.898 2.036,1.435 3.044,2.331" /><path
             id="path80"
             style="fill:#f5de17;fill-opacity:1;fill-rule:nonzero;stroke:none"
             d="m 401.305,208.42 h 61.84 v -61.84 h -61.84 z" /><path
             id="path82"
             style="fill:#043642;fill-opacity:1;fill-rule:nonzero;stroke:none"
             d="m 485.8955,158.5908 c 0,-1.222 -0.138,-2.371 -0.413,-3.448 -0.275,-1.078 -0.754,-2.018 -1.437,-2.82 -0.682,-0.802 -1.604,-1.437 -2.765,-1.904 -1.162,-0.467 -2.628,-0.7 -4.4,-0.7 -1.629,0 -3.029,0.197 -4.202,0.593 -1.174,0.395 -2.143,0.855 -2.909,1.383 l 1.867,4.345 c 0.695,-0.407 1.437,-0.766 2.227,-1.077 0.79,-0.311 1.652,-0.467 2.586,-0.467 1.365,0 2.346,0.335 2.945,1.006 0.599,0.67 0.898,1.796 0.898,3.376 v 16.234 h 5.603 z" /><path
             id="path84"
             style="fill:#043642;fill-opacity:1;fill-rule:nonzero;stroke:none"
             d="m 497.6763,154.4961 c 0.79,0 1.442,0.065 1.958,0.197 0.514,0.132 0.927,0.311 1.239,0.539 0.31,0.227 0.526,0.496 0.646,0.808 0.119,0.311 0.179,0.658 0.179,1.042 0,0.813 -0.383,1.49 -1.149,2.029 -0.767,0.539 -2.083,1.119 -3.951,1.742 -0.814,0.288 -1.628,0.617 -2.442,0.988 -0.814,0.371 -1.544,0.838 -2.191,1.4 -0.646,0.563 -1.173,1.245 -1.58,2.048 -0.408,0.802 -0.611,1.777 -0.611,2.927 0,1.149 0.215,2.185 0.647,3.107 0.431,0.921 1.041,1.706 1.832,2.353 0.79,0.646 1.747,1.142 2.873,1.49 1.125,0.347 2.394,0.52 3.807,0.52 1.676,0 3.125,-0.178 4.346,-0.538 1.221,-0.359 2.227,-0.755 3.017,-1.185 l -1.616,-4.418 c -0.695,0.359 -1.467,0.677 -2.317,0.952 -0.85,0.274 -1.874,0.413 -3.071,0.413 -1.341,0 -2.304,-0.185 -2.891,-0.557 -0.587,-0.372 -0.88,-0.94 -0.88,-1.706 0,-0.455 0.108,-0.838 0.323,-1.149 0.216,-0.312 0.521,-0.593 0.916,-0.845 0.395,-0.251 0.85,-0.478 1.365,-0.681 0.514,-0.205 1.083,-0.413 1.706,-0.629 1.293,-0.48 2.418,-0.952 3.376,-1.419 0.958,-0.467 1.754,-1.012 2.388,-1.634 0.635,-0.623 1.108,-1.354 1.419,-2.191 0.311,-0.838 0.467,-1.856 0.467,-3.053 0,-2.322 -0.814,-4.125 -2.442,-5.405 -1.629,-1.282 -4.083,-1.922 -7.363,-1.922 -1.102,0 -2.096,0.066 -2.981,0.197 -0.886,0.132 -1.67,0.294 -2.353,0.485 -0.682,0.192 -1.269,0.395 -1.76,0.611 -0.491,0.215 -0.904,0.419 -1.239,0.61 l 1.581,4.454 c 0.741,-0.407 1.657,-0.772 2.747,-1.096 1.089,-0.323 2.424,-0.484 4.005,-0.484" /><path
             id="path86"
             style="fill:#043642;fill-opacity:1;fill-rule:nonzero;stroke:none"
             d="m 531.5215,174.6259 v -2.119 h -7.974 v -22.772 h -2.442 v 22.772 h -7.974 v 2.119 z" /><path
             id="path88"
             style="fill:#043642;fill-opacity:1;fill-rule:nonzero;stroke:none"
             d="m 545.8345,171.8242 c -0.901,-2.067 -1.778,-4.165 -2.632,-6.293 -0.854,-2.129 -1.737,-4.425 -2.651,-6.888 h 10.624 c -0.919,2.466 -1.814,4.766 -2.684,6.897 -0.871,2.132 -1.757,4.226 -2.657,6.284 m 8.565,-22.089 c -0.475,1.223 -0.911,2.399 -1.31,3.527 -0.4,1.128 -0.78,2.228 -1.144,3.297 h -12.16 c -0.415,-1.075 -0.822,-2.176 -1.219,-3.306 -0.398,-1.129 -0.818,-2.302 -1.262,-3.518 h -2.551 c 0.946,2.592 1.838,5.006 2.679,7.244 0.841,2.238 1.666,4.355 2.474,6.352 0.808,1.997 1.611,3.915 2.408,5.757 0.797,1.84 1.634,3.686 2.513,5.538 h 2.153 c 0.878,-1.843 1.711,-3.687 2.5,-5.531 0.788,-1.845 1.587,-3.765 2.398,-5.761 0.811,-1.995 1.633,-4.114 2.466,-6.355 0.833,-2.241 1.75,-4.655 2.75,-7.244 z" /><path
             id="path90"
             style="fill:#043642;fill-opacity:1;fill-rule:nonzero;stroke:none"
             d="m 581.6973,149.7353 c -0.462,0.833 -1.042,1.815 -1.739,2.947 -0.698,1.132 -1.473,2.333 -2.325,3.605 -0.853,1.27 -1.743,2.585 -2.67,3.942 -0.928,1.357 -1.851,2.677 -2.77,3.96 -0.92,1.282 -1.819,2.484 -2.699,3.606 -0.88,1.122 -1.661,2.09 -2.343,2.907 v -20.967 h -2.407 v 24.891 h 1.94 c 1.222,-1.364 2.532,-2.94 3.928,-4.727 1.397,-1.787 2.765,-3.608 4.107,-5.463 1.342,-1.855 2.594,-3.668 3.757,-5.438 1.163,-1.772 2.117,-3.315 2.862,-4.629 v 20.257 h 2.406 v -24.891 z" /><path
             id="path92"
             style="fill:#043642;fill-opacity:1;fill-rule:nonzero;stroke:none"
             d="m 596.7466,161.6963 v -9.842 c 0.359,-0.048 0.898,-0.101 1.616,-0.161 0.718,-0.06 1.448,-0.09 2.191,-0.09 1.101,0 2.173,0.072 3.215,0.216 1.041,0.145 1.957,0.409 2.748,0.793 0.79,0.385 1.424,0.913 1.903,1.586 0.479,0.673 0.718,1.538 0.718,2.596 0,0.961 -0.167,1.759 -0.502,2.397 -0.336,0.636 -0.815,1.141 -1.437,1.513 -0.623,0.373 -1.383,0.631 -2.281,0.775 -0.898,0.145 -1.898,0.217 -2.999,0.217 z m 0,2.083 h 4.741 c 0.885,0 1.724,0.065 2.514,0.196 0.79,0.132 1.478,0.37 2.065,0.716 0.587,0.346 1.048,0.811 1.383,1.395 0.335,0.585 0.503,1.33 0.503,2.237 0,0.81 -0.18,1.496 -0.539,2.057 -0.359,0.559 -0.868,1.018 -1.526,1.377 -0.659,0.357 -1.443,0.614 -2.353,0.768 -0.91,0.155 -1.915,0.234 -3.017,0.234 -0.886,0 -1.634,-0.025 -2.245,-0.073 -0.61,-0.048 -1.119,-0.107 -1.526,-0.179 z m 3.52,-14.259 c -0.408,0 -0.88,0.018 -1.419,0.054 -0.539,0.036 -1.09,0.084 -1.652,0.143 -0.563,0.06 -1.095,0.131 -1.598,0.216 -0.503,0.083 -0.934,0.173 -1.293,0.27 v 23.956 c 0.431,0.12 0.909,0.222 1.436,0.306 0.527,0.083 1.071,0.155 1.634,0.214 0.563,0.06 1.114,0.102 1.653,0.126 0.538,0.024 1.035,0.037 1.49,0.037 1.341,0 2.616,-0.108 3.825,-0.323 1.209,-0.216 2.269,-0.574 3.179,-1.076 0.91,-0.502 1.634,-1.166 2.173,-1.991 0.539,-0.824 0.808,-1.847 0.808,-3.066 0,-1.339 -0.341,-2.481 -1.024,-3.424 -0.682,-0.945 -1.598,-1.596 -2.747,-1.955 0.718,-0.168 1.376,-0.408 1.975,-0.719 0.599,-0.313 1.125,-0.714 1.581,-1.205 0.454,-0.492 0.808,-1.091 1.059,-1.798 0.252,-0.708 0.378,-1.553 0.378,-2.536 0,-2.35 -0.935,-4.143 -2.802,-5.377 -1.868,-1.235 -4.754,-1.852 -8.656,-1.852" /><path
             id="path94"
             style="fill:#043642;fill-opacity:1;fill-rule:nonzero;stroke:none"
             d="m 630.0054,149.1972 c -1.652,0 -3.059,0.251 -4.22,0.754 -1.162,0.503 -2.101,1.197 -2.82,2.083 -0.718,0.886 -1.239,1.922 -1.562,3.107 -0.323,1.185 -0.485,2.46 -0.485,3.826 v 15.659 h 2.442 v -15.336 c 0,-1.365 0.162,-2.545 0.485,-3.538 0.324,-0.994 0.772,-1.814 1.347,-2.46 0.575,-0.647 1.269,-1.126 2.083,-1.438 0.814,-0.311 1.724,-0.467 2.73,-0.467 1.006,0 1.916,0.156 2.729,0.467 0.814,0.312 1.509,0.791 2.084,1.438 0.575,0.646 1.023,1.466 1.347,2.46 0.323,0.993 0.485,2.173 0.485,3.538 v 15.336 h 2.442 v -15.659 c 0,-1.366 -0.162,-2.641 -0.485,-3.826 -0.323,-1.185 -0.844,-2.221 -1.562,-3.107 -0.719,-0.886 -1.659,-1.58 -2.82,-2.083 -1.161,-0.503 -2.568,-0.754 -4.22,-0.754" /><path
             id="path96"
             style="fill:#043642;fill-opacity:1;fill-rule:nonzero;stroke:none"
             d="m 663.6953,151.8545 v -2.119 h -14.151 v 24.89 h 2.442 v -22.771 z" /><path
             id="path98"
             style="fill:#043642;fill-opacity:1;fill-rule:nonzero;stroke:none"
             d="m 439.5674,156.5058 c -2.107,-0.47 -4.214,-0.938 -6.321,-1.407 -0.043,0.123 -0.086,0.247 -0.128,0.37 1.755,0.936 3.511,1.872 5.296,2.824 -2.806,4.162 -5.503,5.104 -9.723,3.192 -4.083,-1.851 -8.026,-4.011 -12.031,-6.036 -0.378,-0.19 -0.757,-0.379 -1.356,-0.312 0.306,0.287 0.581,0.621 0.924,0.854 5.115,3.486 10.185,7.056 15.992,9.349 1.121,0.442 2.312,0.718 3.484,1.016 1.731,0.439 3.121,0.158 4.325,-1.434 0.839,-1.108 2.201,-1.82 3.456,-2.809 1.851,4.498 5.15,7.472 8.584,10.322 0.59,0.489 1.274,0.88 1.956,1.235 1.617,0.842 2.922,0.313 3.551,-1.392 0.599,-1.621 0.002,-2.433 -1.711,-2.421 -1.014,0.005 -2.087,0.087 -3.026,-0.206 -0.901,-0.283 -1.905,-0.833 -2.435,-1.574 -1.109,-1.547 -1.61,-3.368 -1.356,-5.377 2.123,-0.147 3.631,-1.022 4.606,-2.911 0.377,-0.731 1.265,-1.199 1.967,-1.829 -0.257,-0.148 -0.366,-0.245 -0.397,-0.225 -1.988,1.307 -3.653,0.717 -5.534,-0.503 -2.473,-1.605 -5.283,-2.393 -8.315,-1.688 -0.24,0.056 -0.536,-0.035 -0.783,-0.124 -1.326,-0.478 -2.645,-0.977 -4.069,-1.245 0.333,1.898 2.036,1.435 3.044,2.331" /><path
             id="path100"
             style="fill:#f5de17;fill-opacity:1;fill-rule:nonzero;stroke:none"
             d="M 551.578,16.429 H 531 v 20.578 h 20.578 z" /><path
             id="path102"
             style="fill:#000000;fill-opacity:1;fill-rule:nonzero;stroke:none"
             d="m 560.9819,27.1289 h -2.344 l -0.311,-2.419 h 2.356 z m 0.885,0 -0.299,-2.419 h 1.733 v -0.91 h -1.845 l -0.274,-2.244 h -0.886 l 0.275,2.244 h -2.357 l -0.274,-2.244 h -0.885 l 0.274,2.244 h -1.721 v 0.91 h 1.833 l 0.312,2.419 h -1.746 v 0.91 h 1.858 l 0.275,2.244 h 0.885 l -0.274,-2.244 h 2.343 l 0.275,2.244 h 0.885 l -0.274,-2.244 h 1.72 v -0.91 z" /><path
             id="path104"
             style="fill:#000000;fill-opacity:1;fill-rule:nonzero;stroke:none"
             d="m 566.4053,29.1982 v -3.042 h 4.376 v -1.072 h -4.376 v -3.529 h -1.247 v 8.728 h 6.16 v -1.085 z" /><path
             id="path106"
             style="fill:#000000;fill-opacity:1;fill-rule:nonzero;stroke:none"
             d="m 577.209,26.1006 c 0.586,-0.47 0.879,-1.112 0.879,-1.927 0,-0.515 -0.123,-0.978 -0.368,-1.389 -0.245,-0.413 -0.615,-0.737 -1.11,-0.973 -0.494,-0.237 -1.103,-0.356 -1.826,-0.356 -0.616,0 -1.21,0.094 -1.783,0.281 -0.574,0.187 -1.047,0.447 -1.421,0.779 l 0.573,0.985 c 0.299,-0.283 0.681,-0.509 1.147,-0.679 0.466,-0.171 0.956,-0.256 1.471,-0.256 0.657,0 1.166,0.139 1.528,0.418 0.361,0.278 0.542,0.658 0.542,1.14 0,0.524 -0.199,0.921 -0.598,1.191 -0.399,0.27 -1.081,0.405 -2.045,0.405 h -1.983 l 0.462,4.564 h 4.925 v -1.085 h -3.878 l -0.237,-2.394 h 0.972 c 1.248,0 2.164,-0.235 2.75,-0.704" /><path
             id="path108"
             style="fill:#000000;fill-opacity:1;fill-rule:nonzero;stroke:none"
             d="m 583.249,22.6406 c 0.707,0 1.328,0.137 1.864,0.411 0.536,0.275 0.949,0.658 1.24,1.153 0.292,0.495 0.437,1.067 0.437,1.714 0,0.649 -0.145,1.22 -0.437,1.715 -0.291,0.494 -0.704,0.879 -1.24,1.153 -0.536,0.275 -1.157,0.412 -1.864,0.412 h -2.356 v -6.558 z m -3.603,7.643 h 3.678 c 0.923,0 1.741,-0.184 2.456,-0.549 0.715,-0.366 1.27,-0.879 1.664,-1.54 0.395,-0.66 0.593,-1.419 0.593,-2.276 0,-0.855 -0.198,-1.614 -0.593,-2.275 -0.394,-0.66 -0.949,-1.174 -1.664,-1.539 -0.715,-0.366 -1.533,-0.549 -2.456,-0.549 h -3.678 z" /><path
             id="path110"
             style="fill:#000000;fill-opacity:1;fill-rule:nonzero;stroke:none"
             d="m 596.0903,22.6406 v -1.085 h -6.333 v 8.728 h 6.159 v -1.085 h -4.913 v -2.681 h 4.377 v -1.06 h -4.377 v -2.817 z" /><path
             id="path112"
             style="fill:#000000;fill-opacity:1;fill-rule:nonzero;stroke:none"
             d="m 599.918,30.2832 v -8.728 h -1.234 v 7.643 h -1.97 v 1.085 z" /><path
             id="path114"
             style="fill:#000000;fill-opacity:1;fill-rule:nonzero;stroke:none"
             d="m 607.9971,30.2832 v -0.848 l -3.528,-7.88 h -1.322 l 3.454,7.643 h -3.99 v -1.559 h -1.197 v 2.644 z" /><path
             id="path116"
             style="fill:#043642;fill-opacity:1;fill-rule:nonzero;stroke:none"
             d="m 636.266,16.429 h -20.578 v 20.578 h 20.578 z" /><path
             id="path118"
             style="fill:#000000;fill-opacity:1;fill-rule:nonzero;stroke:none"
             d="m 645.6689,27.1289 h -2.344 l -0.311,-2.419 h 2.356 z m 0.885,0 -0.299,-2.419 h 1.733 v -0.91 h -1.845 l -0.274,-2.244 h -0.886 l 0.275,2.244 h -2.357 l -0.274,-2.244 h -0.885 l 0.274,2.244 h -1.721 v 0.91 h 1.833 l 0.312,2.419 h -1.746 v 0.91 h 1.858 l 0.275,2.244 h 0.885 l -0.274,-2.244 h 2.343 l 0.275,2.244 h 0.885 l -0.274,-2.244 h 1.72 v -0.91 z" /><path
             id="path120"
             style="fill:#000000;fill-opacity:1;fill-rule:nonzero;stroke:none"
             d="m 654.3779,23.4258 c 0.419,0.573 0.629,1.404 0.629,2.493 0,1.089 -0.21,1.921 -0.629,2.494 -0.42,0.574 -0.979,0.861 -1.677,0.861 -0.707,0 -1.27,-0.287 -1.69,-0.861 -0.419,-0.573 -0.629,-1.405 -0.629,-2.494 0,-1.089 0.21,-1.92 0.629,-2.493 0.42,-0.573 0.983,-0.86 1.69,-0.86 0.698,0 1.257,0.287 1.677,0.86 m -3.516,-1.44 c -0.536,0.353 -0.958,0.867 -1.266,1.54 -0.307,0.673 -0.461,1.471 -0.461,2.393 0,0.923 0.154,1.721 0.461,2.395 0.308,0.673 0.73,1.185 1.266,1.539 0.536,0.353 1.149,0.53 1.839,0.53 0.681,0 1.29,-0.177 1.826,-0.53 0.537,-0.354 0.958,-0.866 1.266,-1.539 0.307,-0.674 0.461,-1.472 0.461,-2.395 0,-0.922 -0.154,-1.72 -0.461,-2.393 -0.308,-0.673 -0.729,-1.187 -1.266,-1.54 -0.536,-0.353 -1.145,-0.53 -1.826,-0.53 -0.69,0 -1.303,0.177 -1.839,0.53" /><path
             id="path122"
             style="fill:#000000;fill-opacity:1;fill-rule:nonzero;stroke:none"
             d="m 664.8569,23.7002 h -1.658 v -2.145 h -1.21 v 2.145 h -4.85 v 0.873 l 4.464,5.71 h 1.346 l -4.276,-5.511 h 3.354 v 1.895 h 1.172 v -1.895 h 1.658 z" /><path
             id="path124"
             style="fill:#000000;fill-opacity:1;fill-rule:nonzero;stroke:none"
             d="m 670.5664,25.8261 c 0.449,-0.445 0.673,-1.013 0.673,-1.702 0,-0.499 -0.124,-0.95 -0.374,-1.353 -0.249,-0.403 -0.621,-0.723 -1.115,-0.96 -0.495,-0.237 -1.1,-0.355 -1.814,-0.355 -0.624,0 -1.222,0.094 -1.796,0.28 -0.574,0.188 -1.043,0.447 -1.408,0.779 l 0.573,0.986 c 0.299,-0.283 0.681,-0.51 1.147,-0.68 0.465,-0.171 0.96,-0.256 1.484,-0.256 0.648,0 1.153,0.138 1.514,0.411 0.362,0.275 0.543,0.653 0.543,1.135 0,0.483 -0.179,0.857 -0.536,1.122 -0.358,0.267 -0.898,0.4 -1.621,0.4 h -0.698 v 0.872 l 2.194,2.693 h -4.202 v 1.085 h 5.76 v -0.848 l -2.281,-2.818 c 0.856,-0.083 1.508,-0.347 1.957,-0.791" /><path
             id="path126"
             style="fill:#000000;fill-opacity:1;fill-rule:nonzero;stroke:none"
             d="m 677.2241,22.9267 c 0.357,0.308 0.536,0.719 0.536,1.234 0,0.516 -0.181,0.925 -0.542,1.229 -0.362,0.303 -0.846,0.455 -1.452,0.455 -0.392,0 -0.738,-0.075 -1.042,-0.225 -0.303,-0.149 -0.54,-0.353 -0.71,-0.611 -0.171,-0.257 -0.256,-0.544 -0.256,-0.859 0,-0.308 0.081,-0.589 0.243,-0.842 0.162,-0.254 0.399,-0.457 0.711,-0.611 0.311,-0.154 0.683,-0.231 1.116,-0.231 0.573,0 1.039,0.153 1.396,0.461 m 0.293,3.604 c 0.453,-0.216 0.809,-0.526 1.066,-0.929 0.258,-0.404 0.387,-0.866 0.387,-1.391 0,-0.548 -0.136,-1.03 -0.406,-1.446 -0.27,-0.415 -0.64,-0.737 -1.109,-0.966 -0.47,-0.228 -0.996,-0.343 -1.577,-0.343 -1.173,0 -2.076,0.378 -2.712,1.135 -0.636,0.756 -0.954,1.828 -0.954,3.217 0,0.972 0.173,1.801 0.517,2.486 0.345,0.687 0.828,1.205 1.447,1.559 0.619,0.353 1.34,0.53 2.163,0.53 0.424,0 0.823,-0.044 1.197,-0.131 0.374,-0.087 0.698,-0.214 0.972,-0.38 l -0.473,-0.972 c -0.416,0.274 -0.973,0.411 -1.671,0.411 -0.906,0 -1.617,-0.28 -2.132,-0.842 -0.516,-0.561 -0.773,-1.378 -0.773,-2.449 0,-0.134 0.004,-0.238 0.013,-0.313 0.249,0.374 0.591,0.659 1.028,0.855 0.436,0.195 0.929,0.293 1.477,0.293 0.574,0 1.087,-0.109 1.54,-0.324" /><path
             id="path128"
             style="fill:#000000;fill-opacity:1;fill-rule:nonzero;stroke:none"
             d="m 687.3105,23.7002 h -1.658 v -2.145 h -1.21 v 2.145 h -4.85 v 0.873 l 4.464,5.71 h 1.346 l -4.276,-5.511 h 3.354 v 1.895 h 1.172 v -1.895 h 1.658 z" /><path
             id="path130"
             style="fill:#000000;fill-opacity:1;fill-rule:nonzero;stroke:none"
             d="m 693.9683,22.6406 v -1.085 h -6.271 v 0.848 l 3.553,3.428 c 0.432,0.416 0.723,0.776 0.873,1.079 0.15,0.303 0.224,0.609 0.224,0.917 0,0.457 -0.16,0.812 -0.48,1.065 -0.32,0.254 -0.779,0.381 -1.378,0.381 -0.964,0 -1.708,-0.317 -2.231,-0.948 l -0.848,0.736 c 0.341,0.415 0.787,0.739 1.34,0.972 0.553,0.233 1.17,0.349 1.852,0.349 0.914,0 1.641,-0.218 2.182,-0.654 0.54,-0.437 0.81,-1.029 0.81,-1.777 0,-0.465 -0.1,-0.906 -0.299,-1.322 -0.2,-0.416 -0.578,-0.889 -1.135,-1.421 l -2.668,-2.568 z" /><path
             id="path132"
             style="fill:#000000;fill-opacity:1;fill-rule:nonzero;stroke:none"
             d="m 535.0679,47.5039 c -0.898,0.488 -1.602,1.163 -2.111,2.024 -0.509,0.861 -0.764,1.832 -0.764,2.914 0,1.082 0.257,2.053 0.772,2.915 0.515,0.86 1.221,1.536 2.119,2.024 0.898,0.488 1.903,0.732 3.016,0.732 0.904,0 1.728,-0.158 2.473,-0.472 0.746,-0.316 1.376,-0.773 1.891,-1.371 l -1.323,-1.245 c -0.799,0.862 -1.781,1.292 -2.946,1.292 -0.756,0 -1.434,-0.166 -2.032,-0.496 -0.599,-0.331 -1.066,-0.791 -1.402,-1.379 -0.337,-0.587 -0.504,-1.254 -0.504,-2 0,-0.746 0.167,-1.413 0.504,-2 0.336,-0.588 0.803,-1.048 1.402,-1.378 0.598,-0.331 1.276,-0.497 2.032,-0.497 1.165,0 2.147,0.436 2.946,1.307 l 1.323,-1.26 c -0.515,-0.598 -1.147,-1.055 -1.898,-1.37 -0.751,-0.315 -1.578,-0.472 -2.481,-0.472 -1.114,0 -2.119,0.244 -3.017,0.732" /><path
             id="path134"
             style="fill:#000000;fill-opacity:1;fill-rule:nonzero;stroke:none"
             d="m 551.0962,49.0634 c 0.588,0.33 1.05,0.793 1.386,1.386 0.336,0.593 0.504,1.258 0.504,1.993 0,0.734 -0.168,1.399 -0.504,1.992 -0.336,0.594 -0.798,1.056 -1.386,1.387 -0.588,0.33 -1.25,0.496 -1.985,0.496 -0.735,0 -1.397,-0.166 -1.985,-0.496 -0.588,-0.331 -1.05,-0.793 -1.386,-1.387 -0.336,-0.593 -0.504,-1.258 -0.504,-1.992 0,-0.735 0.168,-1.4 0.504,-1.993 0.336,-0.593 0.798,-1.056 1.386,-1.386 0.588,-0.331 1.25,-0.496 1.985,-0.496 0.735,0 1.397,0.165 1.985,0.496 m -5.025,-1.56 c -0.903,0.489 -1.612,1.165 -2.127,2.033 -0.515,0.866 -0.772,1.835 -0.772,2.906 0,1.071 0.257,2.04 0.772,2.906 0.515,0.866 1.224,1.544 2.127,2.032 0.903,0.489 1.916,0.733 3.04,0.733 1.124,0 2.137,-0.244 3.04,-0.733 0.903,-0.488 1.612,-1.164 2.127,-2.024 0.514,-0.861 0.772,-1.833 0.772,-2.914 0,-1.082 -0.258,-2.054 -0.772,-2.914 -0.515,-0.861 -1.224,-1.536 -2.127,-2.025 -0.903,-0.488 -1.916,-0.732 -3.04,-0.732 -1.124,0 -2.137,0.244 -3.04,0.732" /><path
             id="path136"
             style="fill:#000000;fill-opacity:1;fill-rule:nonzero;stroke:none"
             d="m 556.9878,57.955 h 2.047 v -9.294 h 5.766 v -1.732 h -7.813 z" /><path
             id="path138"
             style="fill:#000000;fill-opacity:1;fill-rule:nonzero;stroke:none"
             d="m 573.1182,49.0634 c 0.588,0.33 1.05,0.793 1.386,1.386 0.336,0.593 0.504,1.258 0.504,1.993 0,0.734 -0.168,1.399 -0.504,1.992 -0.336,0.594 -0.798,1.056 -1.386,1.387 -0.588,0.33 -1.25,0.496 -1.985,0.496 -0.735,0 -1.397,-0.166 -1.985,-0.496 -0.588,-0.331 -1.05,-0.793 -1.386,-1.387 -0.336,-0.593 -0.504,-1.258 -0.504,-1.992 0,-0.735 0.168,-1.4 0.504,-1.993 0.336,-0.593 0.798,-1.056 1.386,-1.386 0.588,-0.331 1.25,-0.496 1.985,-0.496 0.735,0 1.397,0.165 1.985,0.496 m -5.025,-1.56 c -0.903,0.489 -1.612,1.165 -2.127,2.033 -0.515,0.866 -0.772,1.835 -0.772,2.906 0,1.071 0.257,2.04 0.772,2.906 0.515,0.866 1.224,1.544 2.127,2.032 0.903,0.489 1.916,0.733 3.04,0.733 1.124,0 2.137,-0.244 3.04,-0.733 0.903,-0.488 1.612,-1.164 2.127,-2.024 0.514,-0.861 0.772,-1.833 0.772,-2.914 0,-1.082 -0.258,-2.054 -0.772,-2.914 -0.515,-0.861 -1.224,-1.536 -2.127,-2.025 -0.903,-0.488 -1.916,-0.732 -3.04,-0.732 -1.124,0 -2.137,0.244 -3.04,0.732" /><path
             id="path140"
             style="fill:#000000;fill-opacity:1;fill-rule:nonzero;stroke:none"
             d="m 585.4839,55.6552 c -0.462,0.378 -1.14,0.567 -2.032,0.567 h -2.395 v -4.394 h 2.395 c 0.892,0 1.57,0.191 2.032,0.574 0.462,0.384 0.693,0.927 0.693,1.631 0,0.703 -0.231,1.244 -0.693,1.622 m 0.74,-8.727 -2.252,3.23 c -0.095,-0.011 -0.237,-0.016 -0.425,-0.016 h -2.49 v -3.214 h -2.047 v 11.027 h 4.537 c 0.955,0 1.787,-0.157 2.496,-0.473 0.709,-0.314 1.253,-0.766 1.63,-1.354 0.378,-0.588 0.568,-1.286 0.568,-2.095 0,-0.83 -0.203,-1.544 -0.607,-2.143 -0.404,-0.598 -0.984,-1.045 -1.74,-1.339 l 2.536,-3.623 z" /><path
             id="path142"
             style="fill:#000000;fill-opacity:1;fill-rule:nonzero;stroke:none"
             d="m 591.2407,47.1338 c -0.793,0.241 -1.42,0.562 -1.882,0.961 l 0.709,1.591 c 0.451,-0.358 1.005,-0.649 1.661,-0.874 0.657,-0.227 1.316,-0.339 1.977,-0.339 0.82,0 1.431,0.131 1.836,0.393 0.404,0.263 0.606,0.61 0.606,1.04 0,0.315 -0.113,0.575 -0.339,0.78 -0.226,0.205 -0.511,0.365 -0.858,0.48 -0.347,0.115 -0.819,0.247 -1.418,0.394 -0.84,0.2 -1.52,0.399 -2.04,0.598 -0.52,0.201 -0.966,0.513 -1.339,0.938 -0.372,0.426 -0.559,1 -0.559,1.725 0,0.609 0.166,1.163 0.496,1.662 0.331,0.499 0.83,0.895 1.497,1.189 0.667,0.294 1.483,0.441 2.449,0.441 0.672,0 1.334,-0.083 1.985,-0.251 0.651,-0.169 1.213,-0.411 1.686,-0.725 l -0.646,-1.592 c -0.484,0.284 -0.988,0.499 -1.512,0.647 -0.526,0.146 -1.035,0.22 -1.529,0.22 -0.808,0 -1.409,-0.136 -1.803,-0.41 -0.394,-0.273 -0.591,-0.636 -0.591,-1.087 0,-0.314 0.113,-0.572 0.339,-0.771 0.226,-0.2 0.512,-0.358 0.858,-0.473 0.347,-0.116 0.819,-0.247 1.418,-0.393 0.819,-0.19 1.491,-0.387 2.017,-0.591 0.524,-0.205 0.973,-0.518 1.346,-0.938 0.373,-0.42 0.559,-0.987 0.559,-1.701 0,-0.609 -0.165,-1.161 -0.496,-1.654 -0.331,-0.493 -0.832,-0.888 -1.504,-1.182 -0.673,-0.294 -1.491,-0.44 -2.458,-0.44 -0.85,0 -1.672,0.12 -2.465,0.362" /><path
             id="path144"
             style="fill:#000000;fill-opacity:1;fill-rule:nonzero;stroke:none"
             d="m 599.4092,47.1884 c -0.252,0.247 -0.378,0.56 -0.378,0.937 0,0.389 0.123,0.704 0.37,0.946 0.247,0.241 0.554,0.362 0.922,0.362 0.367,0 0.674,-0.121 0.921,-0.362 0.247,-0.242 0.37,-0.557 0.37,-0.946 0,-0.377 -0.126,-0.69 -0.378,-0.937 -0.252,-0.247 -0.556,-0.37 -0.913,-0.37 -0.358,0 -0.662,0.123 -0.914,0.37 m 0,6.002 c -0.252,0.246 -0.378,0.56 -0.378,0.937 0,0.388 0.123,0.704 0.37,0.946 0.247,0.241 0.554,0.362 0.922,0.362 0.367,0 0.674,-0.121 0.921,-0.362 0.247,-0.242 0.37,-0.558 0.37,-0.946 0,-0.377 -0.126,-0.691 -0.378,-0.937 -0.252,-0.247 -0.556,-0.37 -0.913,-0.37 -0.358,0 -0.662,0.123 -0.914,0.37" /></g></g></g></g></svg>